<?xml version="1.0" standalone="no"?>
<!DOCTYPE svg PUBLIC "-//W3C//DTD SVG 20010904//EN"
 "http://www.w3.org/TR/2001/REC-SVG-20010904/DTD/svg10.dtd">
<svg version="1.0" xmlns="http://www.w3.org/2000/svg"
 width="1074.000000pt" height="1074.000000pt" viewBox="0 0 1074.000000 1074.000000"
 preserveAspectRatio="xMidYMid meet">
<metadata>
Created by potrace 1.11, written by Peter Selinger 2001-2013
</metadata>
<g transform="translate(0.000000,1074.000000) scale(0.100000,-0.100000)"
fill="#000000" stroke="none">
<path d="M0 5370 l0 -5370 5370 0 5370 0 0 5370 0 5370 -5370 0 -5370 0 0
-5370z m5673 3586 c57 -17 121 -46 180 -83 51 -31 117 -71 149 -89 113 -67
193 -224 259 -505 l22 -95 -35 -55 c-52 -81 -123 -244 -143 -326 -13 -54 -16
-99 -13 -177 l5 -105 -31 -3 c-27 -3 -35 -12 -66 -71 -19 -37 -46 -81 -60 -97
-17 -20 -101 -67 -249 -140 -452 -224 -449 -223 -606 -195 -127 23 -136 14
-64 -58 89 -88 209 -188 245 -203 67 -28 173 -7 229 46 11 10 52 33 90 51 39
18 84 45 102 62 37 35 53 29 53 -19 0 -47 -25 -92 -55 -100 -21 -5 -25 -12
-25 -40 0 -50 28 -45 92 16 29 28 55 50 59 50 9 0 49 -85 49 -103 0 -8 -9 -22
-20 -32 -32 -29 -27 -78 11 -108 l32 -25 -2 -96 c-1 -57 3 -111 10 -131 12
-33 11 -37 -17 -66 -21 -23 -36 -29 -56 -27 -30 5 -38 -10 -38 -79 0 -61 -7
-73 -44 -73 -47 0 -74 -33 -78 -94 -2 -27 -8 -51 -15 -53 -7 -3 -22 15 -33 38
-19 37 -20 45 -9 68 7 14 14 37 15 51 0 14 4 33 9 43 5 13 2 17 -14 17 -28 0
-42 38 -39 99 l3 46 -35 -1 c-96 -2 -681 -146 -717 -176 -7 -6 -13 -25 -13
-42 0 -22 -8 -37 -25 -50 -22 -16 -24 -24 -19 -55 7 -33 6 -35 -10 -22 -15 13
-19 13 -27 0 -5 -8 -9 -20 -9 -26 0 -16 -6 -16 -30 -3 -22 12 -50 124 -50 203
0 51 3 57 40 91 22 19 52 38 67 42 16 3 66 17 113 30 46 13 101 24 121 24 21
0 40 4 44 10 6 10 -26 175 -90 462 -25 108 -45 217 -45 242 0 43 -1 45 -44 61
-28 11 -46 25 -50 38 -3 12 -17 116 -31 232 -14 115 -28 219 -30 230 -2 11
-43 49 -90 84 -47 35 -84 65 -83 66 2 1 37 -3 78 -11 169 -30 456 -38 881 -25
224 7 421 16 439 20 31 6 36 14 85 126 29 66 72 163 97 215 25 52 43 98 39
102 -10 11 -130 17 -481 23 -184 3 -519 10 -744 15 -225 5 -413 7 -418 4 -4
-3 -8 0 -8 5 0 6 45 61 100 123 71 80 104 125 111 153 19 72 99 186 199 285
105 104 173 149 288 192 74 27 83 28 217 24 115 -3 156 -8 228 -30z m3137 3
c54 -18 77 -34 135 -93 90 -91 126 -158 133 -245 5 -76 -9 -118 -55 -172 -85
-97 -99 -183 -88 -563 12 -401 11 -420 -9 -451 -10 -15 -31 -34 -47 -43 -16
-10 -80 -50 -141 -89 -246 -160 -409 -225 -568 -226 -84 -1 -101 2 -147 26
-29 15 -57 36 -63 46 -9 17 -25 71 -106 341 -55 184 -104 447 -104 564 0 129
64 407 105 456 7 8 16 26 20 39 19 61 123 184 215 254 30 23 57 44 60 47 28
28 273 113 390 134 59 11 207 -3 270 -25z m499 -354 c99 -75 147 -178 171
-365 6 -47 13 -96 16 -110 3 -14 -8 11 -24 55 -54 151 -100 225 -166 262 -8 4
-24 45 -35 90 -12 45 -24 89 -27 97 -9 24 1 20 65 -29z m-16 -218 c18 -8 38
-21 44 -29 11 -13 7 -15 -32 -16 -149 -2 -204 -218 -160 -622 24 -214 39 -390
34 -394 -2 -2 -22 -7 -44 -10 l-40 -7 -23 209 c-61 551 -49 715 57 821 33 33
81 57 119 60 7 1 27 -5 45 -12z m48 -184 c36 -21 36 -26 1 -39 -68 -26 -70
-247 -2 -281 l24 -12 -28 -12 c-23 -11 -32 -11 -54 2 -32 18 -49 50 -65 124
-10 47 -9 66 6 123 18 66 48 112 75 112 8 0 27 -8 43 -17z m-2933 -102 c44
-37 65 -64 86 -111 33 -73 29 -92 -5 -23 -13 26 -28 48 -34 48 -5 0 -23 -26
-39 -58 -53 -107 -46 -259 15 -296 l29 -18 -67 -51 c-66 -52 -93 -63 -93 -40
0 6 -11 39 -24 72 -69 173 -52 406 37 504 11 12 24 22 28 22 4 0 34 -22 67
-49z m-1708 -141 l0 -70 35 0 c29 0 35 -4 35 -21 0 -19 -4 -21 -37 -15 -21 3
-48 6 -60 6 -22 0 -23 4 -23 85 0 84 0 85 25 85 24 0 25 -2 25 -70z m228 -17
c-3 -83 -4 -88 -25 -91 -22 -3 -23 -1 -23 87 0 91 0 91 25 91 l26 0 -3 -87z
m220 81 c15 -4 22 -14 22 -30 0 -21 -2 -22 -31 -12 -22 7 -34 7 -41 0 -8 -8
-3 -14 18 -22 48 -17 59 -26 62 -52 4 -37 -22 -58 -72 -58 -47 0 -70 17 -60
44 4 12 10 13 24 6 26 -14 63 -13 58 2 -3 7 -19 16 -36 20 -39 10 -55 38 -43
71 13 35 46 45 99 31z m292 -19 c0 -10 -10 -15 -30 -15 l-30 0 0 -70 c0 -68
-1 -70 -25 -70 -24 0 -25 2 -25 70 0 68 -1 70 -25 70 -16 0 -25 6 -25 15 0 12
16 15 80 15 64 0 80 -3 80 -15z m220 -5 c0 -16 -7 -20 -35 -20 -19 0 -35 -4
-35 -10 0 -5 16 -10 36 -10 28 0 35 -3 32 -17 -2 -12 -14 -19 -36 -21 -24 -2
-32 -8 -32 -23 0 -15 7 -19 35 -19 29 0 35 -4 35 -20 0 -19 -5 -21 -57 -18
l-58 3 -3 88 -3 87 61 0 c53 0 60 -2 60 -20z m199 -37 l30 -58 1 58 c0 55 1
58 23 55 13 -2 22 -10 21 -20 0 -10 -1 -49 -2 -88 -2 -68 -3 -70 -27 -70 -20
0 -30 9 -47 45 -25 51 -38 50 -38 -6 0 -32 -3 -39 -20 -39 -19 0 -20 7 -20 90
0 89 0 90 25 90 20 0 30 -11 54 -57z m656 -178 c-3 -22 -15 -58 -26 -80 -10
-22 -17 -31 -13 -20 22 76 34 135 36 175 l1 45 4 -40 c3 -22 2 -58 -2 -80z
m2945 -28 c0 -2 -15 -16 -32 -33 l-33 -29 29 33 c28 30 36 37 36 29z m-59
-167 c5 0 9 -4 9 -10 0 -12 -47 -13 -54 -1 -8 12 6 22 22 16 7 -3 18 -5 23 -5z
m-98 -321 c46 -59 57 -91 37 -104 -5 -3 -10 -39 -10 -78 0 -173 -49 -475 -109
-676 -21 -70 -48 -179 -60 -242 -109 -588 -90 -496 -170 -839 -33 -140 -64
-302 -70 -360 -6 -58 -15 -145 -21 -195 -33 -285 -61 -570 -80 -790 -25 -300
-28 -326 -40 -345 -7 -11 -27 -14 -86 -12 -43 2 -80 4 -81 6 -2 2 5 14 16 27
17 22 19 59 30 544 6 286 15 608 21 715 5 107 16 344 25 525 14 295 23 414 56
715 12 119 11 297 -3 378 -11 68 -11 70 17 117 27 47 27 49 15 118 -10 59 -18
76 -46 103 -19 17 -34 41 -34 52 0 21 42 59 114 102 66 40 153 118 206 184
l51 63 72 11 c45 7 76 17 82 26 5 9 12 16 15 16 3 -1 26 -28 53 -61z m-4576
-231 c5 -81 7 -88 27 -88 11 0 27 -4 35 -9 17 -11 4 -49 -34 -96 -22 -27 -27
-29 -45 -17 -14 9 -26 9 -39 3 -25 -14 -31 -5 -24 32 6 29 5 30 -24 24 -24 -5
-35 -1 -53 19 -36 38 -52 32 -48 -18 3 -39 0 -44 -37 -70 -36 -25 -74 -35
-138 -37 -10 -1 -43 -25 -74 -53 -34 -33 -58 -48 -60 -40 -9 24 -21 12 -39
-38 -10 -27 -21 -50 -25 -50 -3 0 -10 15 -14 33 l-8 32 -6 -35 c-4 -20 -11
-41 -15 -48 -9 -15 -49 -6 -94 20 -41 25 -49 19 -25 -19 14 -22 14 -25 2 -15
-9 6 -36 16 -60 21 -24 5 -61 16 -81 25 -58 25 -50 0 27 -85 36 -40 63 -74 61
-76 -4 -4 -82 12 -109 23 -25 9 -21 -10 9 -45 35 -43 18 -39 -39 8 -65 54
-180 100 -300 118 -80 13 -106 14 -133 4 -19 -7 -49 -9 -69 -5 -73 13 -26 -43
58 -69 35 -11 77 -37 124 -77 40 -33 78 -60 85 -61 8 0 9 -2 2 -5 -6 -3 -37
11 -69 31 -33 19 -73 39 -90 44 -16 5 -39 12 -50 16 -11 4 4 -14 33 -39 52
-47 66 -76 37 -76 -12 0 -14 -4 -6 -17 7 -13 5 -20 -7 -29 -15 -11 -15 -15 9
-41 26 -27 49 -65 49 -79 0 -12 -32 20 -97 95 -78 91 -98 107 -118 91 -11 -9
-21 -7 -45 10 -17 12 -34 20 -37 16 -3 -3 13 -34 36 -69 53 -82 52 -100 -4
-48 -49 45 -81 61 -124 61 -15 0 -44 9 -65 20 -41 21 -59 19 -49 -5 8 -21 -4
-19 -56 12 -69 41 -306 78 -336 53 -20 -17 -19 -33 3 -26 19 6 215 -85 289
-135 62 -42 114 -90 107 -101 -11 -17 -84 -7 -145 22 -56 25 -135 47 -248 67
l-33 6 7 -44 c4 -25 15 -50 25 -57 11 -8 16 -21 13 -33 -9 -34 -31 -20 -86 57
-62 86 -169 174 -212 174 -4 0 15 -23 41 -50 59 -62 108 -129 140 -192 28 -56
33 -167 10 -223 -32 -75 -135 -162 -221 -184 -96 -24 -119 -23 -181 9 -32 17
-70 44 -84 60 -24 27 -55 99 -46 108 9 9 86 -50 86 -66 0 -10 13 -32 29 -49
38 -42 109 -54 158 -27 82 43 108 109 101 256 -4 85 -9 105 -41 173 -39 81
-73 135 -86 135 -5 0 -11 -13 -14 -30 -6 -29 -9 -30 -60 -30 -29 0 -58 -5 -64
-11 -17 -17 -33 -1 -33 31 0 17 -13 51 -29 77 -16 27 -41 74 -56 106 -15 31
-32 57 -39 57 -6 0 -36 -7 -66 -15 -53 -14 -57 -14 -105 9 -27 13 -58 27 -68
30 -9 3 -22 17 -27 32 -8 21 -7 31 6 45 12 14 14 22 6 32 -6 7 -8 23 -5 36 5
21 4 23 -24 17 -30 -7 -30 -7 -51 66 -12 40 -22 82 -22 94 0 29 -9 35 -34 21
-11 -6 -73 -19 -136 -29 -63 -9 -155 -24 -205 -32 -49 -9 -157 -25 -239 -36
-83 -11 -152 -23 -155 -26 -7 -8 82 2 194 21 145 24 296 38 304 29 5 -5 17
-36 29 -69 11 -33 23 -68 27 -77 6 -15 2 -18 -19 -18 -22 0 -26 -4 -26 -31 0
-28 2 -31 24 -25 48 12 65 -34 36 -94 -14 -28 -5 -91 15 -106 22 -16 23 -15
-42 -48 -50 -25 -52 -27 -46 -60 5 -29 1 -38 -31 -66 -27 -25 -36 -41 -36 -65
0 -28 4 -33 40 -44 50 -15 74 -55 64 -107 -5 -29 -3 -38 15 -50 11 -8 21 -24
21 -36 0 -22 -37 -88 -49 -88 -18 0 -65 46 -92 89 -25 39 -29 55 -29 116 0 59
-4 75 -20 90 -11 10 -22 34 -26 54 -17 100 -22 111 -58 111 -26 0 -38 6 -51
28 -10 15 -32 39 -49 54 -30 27 -30 28 -12 43 27 20 43 19 51 -5 4 -12 19 -22
40 -26 26 -5 36 -13 44 -36 l11 -30 62 7 c74 9 78 10 78 36 0 12 7 19 20 19
24 0 26 26 5 54 -10 13 -13 32 -9 57 5 31 3 39 -15 48 -19 10 -21 9 -21 -12 0
-14 -7 -30 -15 -37 -11 -9 -15 -32 -15 -81 0 -39 -4 -69 -10 -69 -6 0 -10 28
-10 63 0 35 -6 74 -15 90 -8 15 -11 35 -8 43 5 14 -6 15 -98 8 -57 -4 -118
-13 -136 -20 -42 -18 -68 -18 -83 1 -10 12 -27 14 -84 9 -39 -4 -81 -13 -93
-20 -13 -8 -49 -14 -85 -14 -35 0 -119 -7 -188 -15 -69 -8 -126 -15 -127 -15
-2 0 -3 9 -3 21 0 15 11 25 40 36 47 19 53 43 11 43 -23 0 -30 5 -33 23 -2 14
-11 23 -25 25 -25 4 -31 30 -9 38 17 6 29 32 21 44 -3 5 -26 2 -52 -7 -43 -15
-47 -15 -60 2 -21 30 -16 46 28 86 38 35 46 38 117 44 91 7 187 20 297 39 88
16 264 21 391 11 74 -6 87 -4 145 21 50 21 87 28 171 33 92 6 111 10 131 29
29 27 82 29 153 6 61 -20 69 -28 87 -84 14 -41 18 -45 52 -48 33 -3 39 -8 56
-48 12 -26 31 -50 48 -59 33 -16 43 -36 30 -56 -13 -22 -11 -26 21 -39 38 -16
100 -84 100 -110 0 -10 9 -24 19 -30 28 -14 153 -12 241 4 41 8 118 17 170 21
52 4 129 16 170 27 41 11 104 24 140 28 36 4 94 20 129 35 54 23 72 26 120 20
45 -5 81 -1 166 20 100 25 118 26 232 20 l123 -7 0 70 c0 85 8 92 97 92 106 0
122 9 177 105 87 151 95 157 264 212 175 56 222 59 332 19 45 -17 111 -31 165
-36 l90 -8 37 41 c24 27 38 52 38 72 2 62 32 -46 37 -137z m4754 55 c13 -16
12 -17 -3 -4 -10 7 -18 15 -18 17 0 8 8 3 21 -13z m154 -73 c33 -6 188 -54
345 -107 248 -82 306 -106 445 -180 88 -47 164 -89 169 -94 6 -5 -3 -13 -23
-20 -25 -9 -45 -32 -87 -96 -52 -80 -74 -96 -74 -52 0 11 14 44 31 75 39 68
32 81 -23 42 -14 -10 -29 -9 -75 1 -114 27 -144 26 -189 -7 -23 -17 -63 -59
-89 -94 -56 -73 -96 -118 -106 -118 -4 0 -14 11 -23 25 -15 22 -15 34 -5 85 6
33 25 81 40 105 16 25 29 48 29 50 0 12 -53 3 -96 -16 -27 -11 -58 -18 -69
-15 -11 3 -57 49 -100 103 -44 54 -103 124 -132 155 -49 54 -53 61 -53 109 0
27 -5 59 -11 70 -10 19 -9 20 13 6 13 -9 50 -20 83 -27z m-1575 -155 c39 -42
111 -60 237 -60 102 0 113 -2 113 -18 0 -37 23 -108 34 -104 16 5 29 84 19
114 -9 26 -6 28 57 59 64 30 86 33 157 18 12 -2 29 -11 37 -20 14 -14 13 -18
-9 -42 -29 -31 -45 -80 -45 -138 0 -28 -9 -54 -30 -86 -56 -84 -80 -160 -89
-281 -7 -82 -16 -128 -34 -172 -30 -72 -43 -140 -57 -300 -5 -66 -24 -194 -41
-285 -40 -218 -104 -593 -119 -705 -16 -123 -20 -129 -37 -60 -15 65 -11 107
27 310 50 267 125 872 146 1178 9 131 14 240 12 243 -3 3 -25 -8 -49 -25 -26
-17 -65 -32 -94 -36 -27 -4 -68 -17 -90 -28 -33 -17 -56 -21 -123 -19 -46 1
-92 7 -103 13 -20 10 -21 28 -2 93 5 17 1 18 -28 12 -18 -3 -64 -9 -103 -12
-97 -7 -68 8 67 36 123 26 132 38 59 78 -32 18 -46 21 -56 13 -10 -9 -21 -7
-44 6 -29 17 -32 17 -67 0 -38 -18 -67 -59 -100 -141 -12 -27 -26 -51 -32 -53
-18 -6 -46 55 -39 84 4 13 3 29 -1 36 -5 8 -9 5 -13 -10 l-5 -22 -55 21 c-30
11 -73 23 -95 25 -38 4 -39 3 -20 -12 10 -8 52 -28 92 -42 44 -17 73 -33 73
-42 0 -14 -32 -13 -164 5 -43 6 -48 5 -45 -11 2 -10 27 -30 56 -44 29 -14 53
-29 53 -34 0 -4 -3 -6 -7 -5 -5 2 -10 -1 -12 -7 -2 -5 17 -21 43 -35 l47 -25
-43 -5 -43 -5 37 -25 c21 -14 38 -28 38 -33 0 -8 -37 -1 -79 15 -24 9 -24 9 4
-28 22 -29 25 -38 14 -45 -8 -5 -19 -9 -25 -9 -7 0 -14 -10 -17 -21 -4 -16
-10 -20 -24 -14 -107 46 -138 44 -85 -6 18 -16 32 -32 32 -34 0 -3 -24 5 -52
16 -89 36 -106 41 -125 37 -13 -2 -8 -11 26 -38 24 -19 62 -52 85 -72 l41 -37
-38 -38 -37 -38 -80 43 c-65 35 -88 43 -122 40 l-43 -3 80 -76 c69 -67 78 -79
66 -93 -8 -9 -28 -16 -47 -16 -27 0 -34 -4 -34 -19 0 -22 -24 -28 -153 -37
-88 -6 -96 -5 -167 25 -41 17 -80 31 -86 31 -7 0 -15 -12 -18 -26 -5 -19 -11
-24 -24 -19 -26 10 -119 18 -136 12 -13 -5 -13 -12 0 -62 9 -32 12 -60 9 -63
-4 -4 -31 19 -61 51 -74 78 -87 77 -58 -4 36 -103 45 -165 33 -238 -16 -96
-36 -125 -101 -149 -29 -11 -54 -16 -56 -12 -2 5 11 33 27 62 36 63 39 113 16
223 -24 116 -39 150 -66 153 -52 6 -69 13 -100 44 -39 39 -68 102 -69 145 0
30 3 33 48 47 27 7 99 20 161 26 89 10 118 17 139 35 47 38 175 85 233 85 39
0 64 7 103 29 28 16 102 44 164 61 155 43 202 64 202 90 0 38 27 74 89 120 72
54 85 75 41 67 -16 -4 -30 -3 -30 2 0 22 38 51 70 55 27 2 36 8 38 26 3 20 0
22 -22 18 -23 -5 -26 -2 -26 23 0 104 41 169 106 169 18 0 45 5 61 11 87 33
163 41 524 57 26 2 42 -4 59 -23z m-1824 -81 c175 -57 437 -193 485 -250 16
-19 70 -156 64 -162 -2 -2 -19 26 -37 64 -30 61 -41 72 -103 111 -47 28 -125
61 -235 97 -307 101 -349 121 -329 157 13 26 30 24 155 -17z m-4706 -154 c-34
-11 -60 -11 -35 0 11 5 29 8 40 8 16 0 15 -2 -5 -8z m-1340 -177 c0 -22 -2
-25 -10 -13 -13 20 -13 40 0 40 6 0 10 -12 10 -27z m1525 -216 c26 -41 56
-140 45 -151 -6 -6 -10 -6 -11 0 -1 5 -2 16 -3 24 -2 8 -3 25 -4 38 -2 25 -54
62 -89 62 -13 0 -23 4 -23 9 0 11 41 40 57 40 7 1 19 -9 28 -22z m3824 -146
c18 -11 5 -31 -20 -31 -12 0 -19 7 -19 20 0 21 16 26 39 11z m21 -134 c0 -23
-4 -28 -21 -25 -12 2 -27 11 -33 21 -9 15 -7 22 13 38 28 23 41 13 41 -34z
m-3745 1 c3 -18 6 -53 8 -78 l2 -45 -39 -3 c-34 -3 -38 -1 -31 15 17 42 18 56
2 68 -14 10 -13 15 9 43 32 40 42 40 49 0z m3550 13 c3 -5 0 -30 -7 -55 -11
-43 -11 -47 10 -62 27 -19 28 -36 2 -59 -21 -19 -27 -45 -10 -45 16 0 12 -26
-12 -66 l-22 -37 23 -18 c12 -10 35 -27 49 -38 l27 -20 -23 -43 c-28 -55 -28
-57 8 -98 36 -43 37 -60 5 -98 -30 -35 -30 -40 -8 -64 15 -17 15 -18 -5 -18
-39 0 -70 22 -88 62 -23 50 -23 76 0 126 18 40 18 40 -8 105 -18 45 -24 75
-20 96 4 18 0 46 -10 71 -20 50 -20 79 -1 100 13 15 13 20 -1 49 -15 30 -15
33 11 76 19 34 32 45 50 45 13 0 26 -4 30 -9z m-191 -158 c-9 -328 -10 -334
-47 -308 -12 8 -25 15 -29 15 -20 0 -2 -28 60 -92 40 -43 62 -73 55 -75 -19
-7 -16 -24 13 -67 23 -33 28 -55 35 -145 4 -58 8 -127 8 -153 1 -47 0 -48 -28
-48 -32 0 -61 -30 -61 -63 0 -11 18 -60 40 -110 46 -103 55 -147 45 -213 l-7
-46 -39 6 c-44 7 -44 6 -33 -77 5 -35 17 -59 50 -97 43 -51 53 -81 35 -109 -8
-12 -18 -7 -53 24 -24 21 -46 43 -50 49 -4 6 -9 8 -11 6 -3 -3 8 -32 23 -65
70 -147 90 -197 90 -218 0 -12 -10 -66 -22 -121 l-23 -98 -107 6 c-75 4 -129
14 -180 32 -100 34 -212 55 -346 62 l-112 7 35 60 c20 33 54 80 76 105 34 38
40 41 34 20 -3 -14 -9 -53 -12 -87 -8 -82 4 -82 85 2 41 42 88 78 135 102 l72
38 3 62 c2 38 8 66 17 73 36 30 9 70 -47 70 -35 0 -39 -3 -45 -30 -4 -22 -16
-37 -42 -50 -20 -11 -51 -32 -68 -46 -25 -20 -33 -23 -33 -11 0 9 27 90 60
181 33 91 60 171 60 178 1 26 35 -32 131 -227 110 -221 142 -278 152 -268 22
21 -6 90 -245 601 -23 49 -25 36 37 302 20 85 42 184 50 220 18 87 61 431 76
607 l12 142 31 4 c17 2 52 5 77 5 l47 2 -4 -157z m373 43 c35 -1 59 -18 49
-34 -8 -13 -80 -25 -105 -17 -22 7 -33 28 -24 51 4 11 12 13 27 9 11 -4 35 -8
53 -9z m359 -278 c4 -7 9 -47 11 -90 3 -77 3 -77 -30 -101 -17 -13 -48 -29
-66 -36 -33 -11 -37 -9 -58 16 -12 16 -22 33 -23 40 0 7 20 26 45 43 25 17 45
35 45 39 0 4 -9 16 -20 26 -23 21 -19 30 24 56 36 22 62 24 72 7z m-1972 -60
c-8 -29 -17 -114 -19 -188 -3 -74 -10 -159 -15 -189 -6 -30 -10 -94 -10 -142
0 -47 -7 -126 -16 -175 -11 -66 -14 -118 -9 -200 5 -89 4 -118 -9 -148 -10
-23 -16 -67 -16 -109 0 -60 -5 -79 -34 -136 -19 -36 -58 -115 -86 -176 -28
-60 -58 -117 -67 -127 -12 -14 -13 -23 -5 -48 11 -29 5 -40 -88 -192 -55 -89
-100 -170 -100 -180 0 -10 -11 -25 -25 -34 -14 -9 -25 -22 -25 -28 0 -7 11
-23 25 -36 14 -13 25 -27 25 -32 0 -4 -19 -17 -42 -29 l-42 -22 29 -23 c16
-13 27 -25 25 -28 -3 -2 -31 -16 -62 -30 -49 -21 -58 -29 -58 -51 0 -28 -38
-94 -78 -137 -24 -26 -24 -28 -8 -62 l17 -36 -33 -32 c-18 -18 -44 -52 -58
-75 -14 -24 -33 -45 -43 -49 -21 -7 -68 -100 -60 -119 3 -9 16 -12 40 -8 27 5
38 2 45 -10 7 -14 20 -16 83 -10 65 5 75 4 75 -10 0 -25 -80 -67 -127 -67 -37
0 -48 7 -117 73 -42 40 -76 80 -76 89 0 9 37 92 83 186 46 93 103 216 127 273
91 220 145 339 215 474 79 152 87 172 169 411 30 88 75 203 99 255 25 52 61
137 81 189 21 52 46 115 56 140 33 82 50 153 50 211 0 32 6 109 14 171 8 62
18 172 21 243 6 119 23 213 46 258 17 30 18 19 3 -35z m1966 -236 c0 -59 -5
-66 -36 -45 -14 9 -28 13 -31 9 -9 -9 15 -75 38 -105 11 -13 19 -30 19 -37 0
-21 -34 -34 -74 -27 -24 4 -36 2 -36 -6 0 -6 19 -47 42 -91 l41 -79 -12 -98
c-6 -53 -18 -120 -27 -149 -9 -32 -11 -59 -6 -73 4 -12 4 -52 -2 -87 -7 -49
-7 -67 3 -73 14 -9 8 -26 -33 -94 l-29 -48 19 -34 c17 -32 17 -35 1 -53 -19
-21 -22 -42 -7 -42 6 0 22 -12 35 -26 21 -22 23 -32 18 -75 -5 -42 -3 -51 16
-66 31 -26 20 -78 -20 -92 -21 -7 -31 -20 -40 -50 l-12 -41 -80 0 -79 0 6 133
c3 72 9 254 12 402 6 289 10 246 -66 855 -5 41 -6 77 -4 80 3 2 49 8 102 12
53 4 124 16 157 27 85 28 85 28 85 -27z m2338 -1563 c12 -20 29 -42 37 -49 21
-17 19 -30 -6 -30 -28 0 -177 84 -222 126 -31 27 -37 40 -37 72 0 62 18 68 80
27 48 -32 64 -36 66 -17 0 4 4 45 8 92 12 136 27 254 34 270 4 8 9 -91 12
-220 5 -222 6 -237 28 -271z m-1793 249 c20 -67 20 -67 -12 -79 -35 -13 -42
-1 -32 59 4 26 8 53 8 60 2 30 22 8 36 -40z m2219 -384 c9 -3 16 -15 16 -26 0
-19 -5 -20 -66 -15 -70 5 -100 21 -74 37 17 11 100 13 124 4z m-189 -105 c4
-6 -1 -17 -11 -25 -18 -13 -17 -16 25 -54 40 -37 48 -40 101 -40 70 0 90 -7
90 -30 0 -36 -96 -41 -143 -8 -54 37 -116 91 -121 104 -3 7 0 29 5 48 9 31 13
35 29 26 10 -6 22 -15 25 -21z"/>
<path d="M5355 8899 c-51 -12 -164 -49 -189 -61 -29 -15 -1 -28 61 -28 59 0
177 -23 227 -44 84 -35 154 -131 171 -234 l7 -44 -318 7 c-176 4 -322 9 -325
11 -21 12 -210 -28 -196 -42 3 -3 198 -12 434 -19 579 -19 804 -32 906 -51 35
-7 37 17 3 36 -14 7 -30 26 -37 42 -19 46 -86 146 -137 205 -95 108 -223 189
-344 218 -69 16 -201 18 -263 4z"/>
<path d="M6011 7616 c-23 -28 -368 -58 -671 -58 -234 0 -340 8 -498 39 -45 9
-85 13 -88 10 -6 -6 34 -313 58 -448 l10 -57 58 5 c72 7 215 -11 337 -41 51
-12 96 -20 101 -17 10 6 37 125 74 328 l23 121 90 7 c49 4 177 18 283 31 106
13 197 24 202 24 11 0 44 59 37 66 -2 3 -9 -2 -16 -10z m-913 -260 c78 -7 145
-16 149 -19 16 -17 -14 -18 -134 -8 -166 15 -203 21 -203 32 0 11 15 11 188
-5z"/>
<path d="M5326 6651 c-13 -25 -14 -34 -2 -63 11 -28 10 -45 -5 -118 -10 -47
-18 -93 -18 -102 -1 -21 25 -23 82 -7 34 9 38 13 32 32 -19 56 -17 107 4 143
12 20 24 56 28 79 6 47 6 47 -69 59 -34 6 -38 4 -52 -23z"/>
<path d="M8687 8095 c-35 -44 -57 -46 -57 -5 0 24 -4 30 -21 30 -19 0 -21 -4
-15 -37 3 -21 6 -64 6 -95 0 -51 2 -58 20 -58 16 0 20 7 20 35 0 19 4 35 8 35
4 0 23 -16 42 -35 25 -25 42 -35 64 -35 l31 1 -53 47 c-28 26 -52 51 -52 57 0
5 19 29 42 52 40 41 41 43 18 43 -17 0 -35 -12 -53 -35z"/>
<path d="M8493 8104 c-3 -8 -3 -37 0 -65 3 -27 2 -49 -3 -49 -5 0 -24 26 -43
58 -26 45 -39 58 -61 60 -27 3 -29 2 -22 -28 3 -18 6 -61 6 -96 0 -59 2 -64
21 -64 20 0 21 4 17 60 -2 33 -1 60 3 60 5 0 23 -26 42 -57 26 -46 39 -59 62
-61 l28 -4 -6 69 c-4 37 -7 83 -7 101 0 34 -25 46 -37 16z"/>
<path d="M8275 8102 c-7 -4 -9 -43 -7 -99 4 -83 6 -93 23 -93 16 0 19 8 19 54
0 65 -10 146 -19 146 -3 0 -11 -4 -16 -8z"/>
<path d="M8047 8092 c-14 -3 -17 -10 -13 -25 3 -12 6 -55 6 -94 0 -66 2 -73
20 -73 17 0 20 7 20 45 l0 45 40 0 40 0 0 -40 c0 -37 2 -40 26 -40 l27 0 -6
68 c-4 37 -7 79 -7 95 0 20 -5 27 -20 27 -17 0 -20 -7 -20 -40 0 -40 0 -40
-39 -40 -38 0 -40 2 -48 38 -6 29 -12 37 -26 34z"/>
<path d="M7843 8083 c-25 -10 -12 -23 22 -23 l35 0 0 -86 c0 -82 1 -85 22 -82
20 3 22 8 22 88 l1 85 28 3 c15 2 27 8 27 13 0 9 -135 12 -157 2z"/>
<path d="M9155 7138 c-59 -60 -34 -52 34 11 25 24 41 51 28 51 -1 0 -29 -28
-62 -62z"/>
<path d="M8921 6960 c-84 -48 -119 -75 -110 -84 5 -6 184 108 194 123 9 15 10
16 -84 -39z"/>
<path d="M4122 6880 c0 -14 2 -19 5 -12 2 6 2 18 0 25 -3 6 -5 1 -5 -13z"/>
<path d="M4131 6714 c0 -11 3 -14 6 -6 3 7 2 16 -1 19 -3 4 -6 -2 -5 -13z"/>
<path d="M718 6703 c12 -2 30 -2 40 0 9 3 -1 5 -23 4 -22 0 -30 -2 -17 -4z"/>
<path d="M500 6680 c-63 -9 -101 -18 -85 -18 17 0 86 8 155 18 69 10 107 18
85 18 -22 0 -92 -8 -155 -18z"/>
<path d="M413 6528 c-114 -21 -35 -36 107 -21 58 6 61 7 39 19 -27 15 -71 16
-146 2z"/>
<path d="M7235 6395 c-40 -35 -40 -35 -10 -28 17 5 63 8 103 8 39 0 72 3 72 8
0 4 -4 7 -10 7 -5 0 -10 6 -10 14 0 15 -30 26 -75 26 -20 0 -43 -12 -70 -35z"/>
</g>
</svg>
